<?xml version="1.0" encoding="UTF-8"?>
<svg width="448" height="416" fill="#666" version="1.1" viewBox="0 0 448 416" xmlns="http://www.w3.org/2000/svg">
  <title>Change language</title>
  <path d="m331 128-117 288h47.24l24.49-58h90.54l24.49 58h47.24zm-26.69 186 26.69-82.15 26.69 82.15z"/>
  <path d="m240 272c-0.25-0.19-20.59-15.77-45.42-42.67 39.58-53.64 62-114.61 71.15-143.33h54.27v-44h-138v-42h-44v42h-138v44h219.25c-9.52 26.95-27.05 69.5-53.79 108.36-32.68-43.44-47.14-75.88-47.33-76.22l-7.13-14.14-38 22 6.87 13.86c0.89 1.56 17.19 37.9 54.71 86.57 0.92 1.21 1.85 2.39 2.78 3.57-49.72 56.86-89.15 79.09-89.66 79.47l-15.7 10.53 23 36 19.3-11.47c2.2-1.67 41.33-24 92-80.78 24.52 26.28 43.22 40.83 44.3 41.67l12.4 8.58z"/>
</svg>
